# Blender v2.81 (sub 16) OBJ File: 'Laberinto.blend'
# www.blender.org
mtllib PEI.mtl
o PEI_Cube
v 0.200000 10.000000 -200.000000
v 0.200000 0.000000 -200.000000
v 0.200000 10.000000 0.000000
v 0.200000 0.000000 0.000000
v -0.200000 10.000000 -200.000000
v -0.200000 0.000000 -200.000000
v -0.200000 10.000000 0.000000
v -0.200000 0.000000 0.000000
vt 0.625000 0.500000
vt 0.875000 0.500000
vt 0.875000 0.750000
vt 0.625000 0.750000
vt 0.375000 0.750000
vt 0.625000 1.000000
vt 0.375000 1.000000
vt 0.434497 -1.104219
vt 0.565503 -1.104219
vt 0.565503 1.354219
vt 0.434497 1.354219
vt 0.125000 0.500000
vt 0.375000 0.500000
vt 0.125000 0.750000
vt 0.585846 0.134920
vt 0.414154 0.134920
vt 0.414154 1.115080
vt 0.585846 1.115080
vt 0.375000 0.250000
vt 0.625000 0.250000
vn 0.0000 1.0000 0.0000
vn 0.0000 0.0000 1.0000
vn -1.0000 0.0000 0.0000
vn 0.0000 -1.0000 0.0000
vn 1.0000 0.0000 0.0000
vn 0.0000 0.0000 -1.0000
usemtl Pared
s off
f 1/1/1 5/2/1 7/3/1 3/4/1
f 4/5/2 3/4/2 7/6/2 8/7/2
f 8/8/3 7/9/3 5/10/3 6/11/3
f 6/12/4 2/13/4 4/5/4 8/14/4
f 2/15/5 1/16/5 3/17/5 4/18/5
f 6/19/6 5/20/6 1/1/6 2/13/6
